<?xml version="1.0" encoding="utf-8"?>
<!-- Generator: Adobe Illustrator 16.0.0, SVG Export Plug-In . SVG Version: 6.00 Build 0)  -->
<!DOCTYPE svg PUBLIC "-//W3C//DTD SVG 1.1//EN" "http://www.w3.org/Graphics/SVG/1.1/DTD/svg11.dtd">
<svg version="1.1" id="图层_1" xmlns="http://www.w3.org/2000/svg" xmlns:xlink="http://www.w3.org/1999/xlink" x="0px" y="0px"
	 width="960px" height="960px" viewBox="0 0 960 960" enable-background="new 0 0 960 960" xml:space="preserve">
<path fill-rule="evenodd" clip-rule="evenodd" fill="#122E66" d="M765.488,346.57l8.734,22.219l21.879-9.535l-9.531,21.879
	l22.211,8.73l-22.215,8.734l9.535,21.879l-21.879-9.531l-8.734,22.211l-8.73-22.215l-21.883,9.535l9.535-21.883l-22.215-8.73
	l22.219-8.73l-9.539-21.879l21.883,9.531 M169.118,346.57l8.738,22.219l21.879-9.535l-9.535,21.879l22.214,8.73l-22.214,8.734
	l9.535,21.879l-21.883-9.531l-8.734,22.211l-8.73-22.215l-21.879,9.535l9.53-21.883l-22.211-8.73l22.215-8.73l-9.534-21.879
	l21.882,9.531L169.118,346.57z"/>
<path fill-rule="evenodd" clip-rule="evenodd" fill="#122E66" d="M687.84,259.441c0.828-0.023,1.781,0.02,2.922,0.188
	c-0.09,0.91,0.285,2.156,1.078,3.683c1.078,1.571,3.184,3.43,6.348,5.653c0.988,0.875,1.434,1.683,1.336,2.347
	c-0.059,0.379-1.613,0.824-4.699,1.332c-2.082,0.274-4.328,0.293-6.73,0.129c-0.059-1.562-0.133-3.137-0.191-4.699
	C688.012,264.109,688.004,261.261,687.84,259.441 M710.508,237.663c0.242,0.325,0.551,0.673,0.887,1.016
	c5.473,4.657,10.043,8.864,13.715,12.571c1.418,1.23,1.891,2.32,1.395,3.363c-0.555,1.766-5.145,5.343-13.711,10.668
	c-0.449,0.078-0.93,0.262-1.461,0.57c0-0.34-0.066-0.711-0.254-1.078c-0.32-0.777-5.852-6.226-16.57-16.383
	c1.879-0.882,3.531-1.867,4.949-2.918c0.039,0.734,1.078,2.274,3.113,4.571c3.66,3.461,6.895,6.625,9.715,9.523
	c0.93,0.918,1.543,1.027,1.902,0.254c0.293-0.977,0.121-2.121-0.508-3.43c-0.563-1.101-4.91-5.007-13.141-11.679
	c1.473-1.09,2.977-2.235,4.508-3.368c-0.086,0.57,0.613,1.95,2.094,4.067c3.891,3.543,7.301,6.68,10.285,9.457
	c0.934,0.918,1.586,0.953,1.906,0.129c0.289-0.977,0.047-2.098-0.637-3.367c-0.605-0.817-4.879-4.375-12.824-10.664
	c-0.039-0.055-0.094-0.052-0.191-0.063C707.977,239.203,709.566,238.105,710.508,237.663 M200.367,236.519
	c-0.515,0.016-1.183,0.062-1.969,0.192c-1.281,0.363-2.167,0.918-2.664,1.586c-0.457,0.601-0.222,1.082,0.7,1.461
	c0.929,0.207,1.589,0.655,1.964,1.332c0.644,1.265,1.312,2.616,2.097,4.066c-2.414,1.672-4.182,3.086-5.397,4.187
	c-0.2,0.215-0.164,0.458,0.19,0.762c0.443,0.27,0.943,0.254,1.524,0c1.507-0.738,3.147-1.445,4.889-2.156
	c0.025,0.105,0.099,0.234,0.189,0.379c0.863,2.457,1.604,5.215,2.285,8.253c-0.004,0.606,0.097,1.048,0.319,1.27
	c0.267,0.414,0.568,0.336,0.888-0.188c0.269-0.445,0.383-1.351,0.254-2.73c0.069-1.55-0.125-3.402-0.508-5.652
	c-0.188-0.719-0.324-1.59-0.445-2.539c1.707-0.621,3.554-1.34,5.589-2.094c0.961-0.293,1.676-0.738,2.094-1.273
	c0.149-0.242,0.093-0.586-0.125-1.078c-0.23-0.653-1.273-1.079-3.176-1.27c-0.918-0.223-1.856-0.144-2.793,0.254
	c-0.731,0.16-1.546,0.675-2.539,1.461c-0.246-0.484-0.41-1.012-0.507-1.586c-0.482-1.352-0.696-2.488-0.7-3.367
	c-0.14-0.626-0.504-0.988-1.015-1.141C201.27,236.547,200.883,236.504,200.367,236.519 M257.191,229.918
	c-0.347,0.047-0.731,0.109-1.144,0.254c-2.574,1.054-4.634,2.168-6.156,3.238c-1.262,1.07-2.196,2.367-2.793,3.933
	c-2.297,6.055-5.528,13.938-9.653,23.622c-0.3-0.094-0.636-0.176-1.015-0.254c-1.246-0.13-2.442-0.024-3.617,0.316
	c-0.2-2.84-0.399-5.836-0.575-9.016c-0.282-3.406-0.071-6.101,0.575-8c0.343-1.453-0.063-2.289-1.207-2.539
	c-1.157-0.433-4.107,0.59-8.891,3.109c-1.336,0.755-2.223,1.946-2.602,3.555c-1.157,4.665-2.782,10.387-4.89,17.27
	c-0.508,1.867-2.017,4.55-4.571,8c-0.921,1.375-0.61,2.172,0.89,2.477c1.087,0.054,2.31-0.223,3.681-0.887
	c2.336-1.211,3.539-3.215,3.621-5.969c0.414-1.68,1.69-6.946,3.871-15.871c0.269-0.988,0.848-1.73,1.715-2.16
	c0.91-0.5,1.69-0.27,2.285,0.633c1.262,3.125,2.668,6.527,4.319,10.16c-0.832,0.371-1.678,0.863-2.475,1.586
	c-1.271,1.093-1.832,2.078-1.778,2.984c-0.054,1.121,0.586,1.472,1.964,1.082c1.875-0.789,3.943-1.07,6.161-0.953
	c-4.95,10.41-10.273,21.641-16,33.777c-0.793,1.446-0.243,2.055,1.589,1.778c1.552-0.38,2.884-1.047,3.997-2.032
	c1.3-1.136,2.125-2.394,2.477-3.683c2.398-7.836,5.637-15.805,9.715-23.938c0.664-1.523,1.41-3.152,2.285-4.886
	c3.019,1.23,5.84,2.738,8.444,4.507c2.821,1.965,4.864,3.957,6.032,5.902c1.097,1.817,0.778,3.743-0.89,5.782
	c-1.478,1.832-2.922,3.531-4.442,5.141c-0.668,0.652-0.566,1.047,0.379,1.077c0.593,0.024,1.656-0.382,3.175-1.14
	c3.75-1.398,6.673-2.051,8.825-1.969c1.535,0.059,2.563-0.457,2.985-1.586c0.44-0.878,0.293-2.718-0.446-5.523
	c-0.625-2.582-2.079-4.98-4.316-7.239c-2.63-2.726-6.192-5.304-10.731-7.62c-2.289-1.145-4.364-2.02-6.222-2.731
	c3.444-6.652,7.953-14.34,13.522-23.047c1.239-1.875,2.361-3.675,3.368-5.332c0.882-1.304,1.132-2.308,0.761-2.984
	C258.992,230.027,258.231,229.773,257.191,229.918 M186.335,225.343c-0.543-0.003-1.245,0.028-2.093,0.129
	c-1.418,0.457-2.429,1.02-3.047,1.586c-0.535,0.731-0.321,1.239,0.696,1.59c0.879,0.289,1.531,0.781,1.906,1.457
	c1.168,2.101,2.137,4.285,2.922,6.606c-0.172,0.14-0.41,0.324-0.699,0.507c-2.512,2.243-4.387,3.977-5.653,5.208
	c-0.304,0.351-0.286,0.66,0.128,0.824c0.486,0.203,1.004,0.163,1.525-0.129c1.769-1.031,3.695-2.074,5.714-3.11
	c0.547,1.727,1,3.633,1.395,5.715c-0.005,0.602,0.066,0.996,0.254,1.27c0.284,0.527,0.605,0.508,0.952-0.063
	c0.271-0.445,0.449-1.41,0.446-2.984c0.035-1.391-0.058-3.129-0.254-5.27c1.504-0.742,3.231-1.558,5.14-2.414
	c0.849-0.359,1.489-0.777,1.97-1.269c0.16-0.258,0.101-0.695-0.188-1.207c-0.286-0.531-1.402-0.887-3.304-1.078
	c-1-0.094-1.93,0.117-2.731,0.57c-0.496,0.234-0.94,0.5-1.332,0.891c-0.3-1.239-0.6-2.528-0.886-3.938
	c-0.45-1.394-0.629-2.528-0.575-3.367c-0.089-0.688-0.491-1.18-1.139-1.395C187.238,225.371,186.883,225.347,186.335,225.343
	 M716.219,224.203c-0.246,0.121-0.414,0.523-0.508,1.14c-0.109,2.363,0.914,4.34,3.047,5.969c1.504,1.004,3.094,2.336,4.699,3.938
	c-1.188,1.133-3.887,2.246-8,3.429c-1.184-1.492-2.34-2.828-3.555-4.128c0.023-1.114-0.207-2.204-0.633-3.239
	c-0.23-0.422-0.59-0.656-1.082-0.633c-0.258,0.106-0.551,0.473-0.824,1.016c-3.266,4.949-8.172,8.727-14.793,11.426
	c-1.281,0.441-2.254,1.058-2.855,1.844c-1.031,1.351-1.59,2.507-1.715,3.363c-0.266,0.789,0.02,1.176,0.887,1.207
	c0.383,0.058,0.879-0.039,1.398-0.254c0.305,0.871,0.805,1.789,1.586,2.73c-4.316,3.192-12.148,3.57-23.492,1.145
	c-0.176-0.125-0.387-0.203-0.633-0.191c-3.297-0.688-8.457-2.36-15.492-5.016c-0.5-0.223-0.668-0.051-0.508,0.507
	c2.586,3.497,9.141,6.544,19.684,9.141c0.258-0.105,0.574-0.062,0.887,0.129c2.891,0.48,6.68,1.016,11.363,1.524
	c-0.141,0.949-0.566,5.32-1.203,13.14c-8.27-1.238-15.813-4.429-22.668-9.586c-0.418-0.449-0.742-0.582-1.016-0.378
	c-0.219,0.16-0.234,0.487-0.063,0.949c4.27,7.488,12.102,12.101,23.492,13.906c-0.781,12.996-0.652,20.598,0.379,22.793
	c1.922,3.398,5.781,7.339,11.621,11.809c0.945,0.823,1.516,1.187,1.777,1.082c0.422-0.231,0.449-0.864,0.063-1.844
	c-1.469-3.813-3.016-7.856-4.699-12.192c-1.922-4.996-3.207-9.64-3.871-13.964c-0.379-2.34-0.734-4.723-1.016-7.047
	c2.648,0.152,5.703,0.3,9.141,0.379c2.039,0.015,3.941,0.406,5.715,1.207c0.824,0.656,1.508,0.793,2.094,0.445
	c0.695-0.43,1.043-1.656,1.016-3.746c0.156-2.649-0.035-4.332-0.508-5.082c-0.402-0.547-0.934-1.059-1.648-1.458
	c-0.703-0.495-4.09-3.452-10.223-8.89c-0.242-0.328-0.473-0.605-0.637-0.824c1.109,0.699,1.992-0.016,2.605-2.16
	c0.418-1.833,0.355-3.09-0.129-3.746c5.035,4.98,9.387,9.582,13.078,13.777c-0.012,0.093-0.043,0.277-0.125,0.508
	c-0.906,1.515-1.164,2.453-0.824,2.793c0.484,0.656,1.695,0.792,3.68,0.508c1.563-0.055,2.805-0.423,3.746-1.203
	c6.398-5.747,11.125-8.586,14.223-8.508c1.113,0.019,1.832-0.36,2.094-1.145c0.191-2.254-0.039-4.937-0.695-8
	c-0.199-0.953-0.93-1.867-2.16-2.73c-2.895-1.746-5.91-4.106-9.016-7.047c-0.699-0.833-1.445-1.531-2.285-2.094
	c0.258-0.109,0.563-0.098,0.887,0c0.91,0.086,1.977,0.129,3.238,0.125c0.492-0.023,1.137,0.035,1.844,0.191
	c0.977,0.293,1.496,0.071,1.648-0.637c0.305-0.73,0.531-1.765,0.637-3.109c2.367,1.375,7.207,6.633,14.539,15.746
	c1.816,2.458,3.051,3.645,3.746,3.555c0.707-0.187,1.098-0.863,1.078-2.031c-0.137-3.957-1.961-7.102-5.395-9.461
	c-2.352-2.148-5.355-4.813-9.016-7.938c-4.188-3.832-8.703-8.031-13.59-12.695C716.832,224.269,716.469,224.081,716.219,224.203
	 M203.542,207.125c-1.207-0.192-3.659,0.812-7.429,2.98c-1.032,0.703-1.73,1.476-2.032,2.414c-1.233,3.469-2.784,7.27-4.632,11.301
	c-0.754,1.231-0.579,1.824,0.442,1.843c1.047-0.241,2.104-0.761,3.175-1.523c1.179-0.945,1.907-2.043,2.161-3.304
	c0.593-1.567,1.175-3.231,1.777-4.95c0.168-0.433,0.363-0.648,0.57-0.699c0.727-0.343,1.782-0.015,3.175,1.016
	c1.192,1.066,2.435,2.281,3.681,3.555c-0.696,0.113-1.383,0.554-2.095,1.269c-0.979,1.063-1.976,2.809-2.922,5.399
	c-0.362,1.441-0.703,2.894-1.14,4.316c-0.433,0.855,0.094,1.144,1.649,0.762c0.422-0.102,0.78-0.5,1.207-1.207
	c1.956-3.364,3.672-6.297,5.081-8.762c1.321,1.41,2.871,2.969,4.571,4.637c-0.532,0.281-1.019,0.699-1.523,1.269
	c-0.945,1.106-1.809,2.93-2.606,5.524c-0.375,1.613-0.711,3.144-0.953,4.57c-0.308,0.953,0.203,1.117,1.589,0.57
	c0.407-0.109,0.868-0.586,1.271-1.394c1.629-3.231,2.988-6.035,4.19-8.446c1.785,1.965,3.802,4.028,5.966,6.223
	c-0.789,1.449-1.477,3.012-2.095,4.57c-3.448,7.105-7.675,16.332-12.698,27.746c-0.152,0.25-0.246,0.493-0.255,0.762
	c-3.315-1.148-6.304-2.191-9.015-3.238c0.036-0.051,0.067-0.125,0.067-0.125c1.351-3.219,2.523-6.102,3.554-8.637
	c0.472-1.371,0.196-2-0.824-1.903c-1.032,0.247-2.097,0.97-3.176,2.157c-0.804,1.168-1.476,3.07-2.031,5.715
	c-0.109,0.723-0.105,1.363-0.062,1.84c-1.36-0.489-2.574-1.004-3.621-1.457c-0.957-0.317-1.743-0.637-2.478-1.02
	c1.192-3.828,2.259-7.09,3.239-9.84c0.438-1.304,0.2-1.91-0.761-1.777c-1.004,0.175-1.95,0.898-2.857,2.094
	c-0.815,1.187-1.375,2.956-1.714,5.398c-0.121,1.047-0.243,2.102-0.316,3.11c-1.255-0.672-2.106-1.122-2.606-1.332
	c-0.75-0.461-1.464-0.649-2.032-0.571c-0.035-1.679-0.05-3.149-0.124-4.317c-0.066-1.183-0.101-2.37-0.129-3.62
	c-0.332-1.328-0.429-2.723-0.254-4.192c0.188-1.297-0.312-1.988-1.523-2.031c-1.207,0.141-2.544,0.695-4,1.652
	c-1.387,0.836-2.188,1.579-2.348,2.286c-0.325,0.679-0.093,1.058,0.696,1.207c0.957,0.308,1.765,1.156,2.35,2.476
	c0.763,1.07,1.368,2.195,1.904,3.492c0.425,1.133,0.889,2.305,1.398,3.493c-1.691,0.898-3.059,2.07-4.191,3.492
	c-0.707,0.711-0.95,1.437-0.762,2.156c0.172,0.711,0.78,1.059,1.905,0.953c2.836-0.203,5.692-0.114,8.571,0.316
	c2.633,0.57,9.097,2.583,19.364,6.032c-1.426,2.906-2.828,5.706-4.189,8.383c-0.16,0.261-0.182,0.484-0.128,0.698
	c-0.105,0.024-0.25-0.011-0.445-0.128c-1.794-0.223-3.195-0.133-4.188,0.316c-1.437,0.516-1.407,1.301,0.063,2.352
	c0.418,0.164,0.887,0.449,1.394,0.762c1.176,0.8,2.008,1.722,2.476,2.793c0.914,1.968,1.724,4.285,2.478,6.921
	c0.293,0.965,1.175,1.758,2.604,2.286c1.879,0.785,3.435,1.14,4.763,1.14c2.101,0.16,2.711-0.883,1.776-3.109
	c-0.819-1.828-2.125-3.708-3.936-5.778c-2.176-2.472-3.844-4.585-4.953-6.222c2.496-0.926,4.164-2.563,4.953-4.891
	c1.69-5.793,3.711-11.519,6.031-17.203c2.715-6.34,6.473-14.375,11.176-24.129c2.858-5.98,4.843-9.59,6.031-10.793
	c1.191-0.668,2.012-0.844,2.409-0.508c0.306,0.094,0.677,0.598,1.207,1.461c1.134,1.746,2.332,3.48,3.493,5.332
	c0.567,0.95,1.046,1.309,1.524,1.082c0.53-0.285,0.797-1.121,0.824-2.605c0.12-4.664,0.766-8.582,1.906-11.746
	c0.824-2.645,1.007-4.126,0.446-4.379c-0.68-0.329-4.184,0.684-10.477,2.984c-1.77,0.582-3.095,1.68-3.938,3.364
	c-1.394,2.836-2.746,5.867-4.062,9.015c-8.52-8.449-13.871-15.039-16.063-19.808C204.879,207.98,204.356,207.375,203.542,207.125
	 M719.648,206.172c-0.621-0.047-1.145,0.308-1.586,1.078c-0.914,2.535-3.121,4.953-6.668,7.238
	c-14.121,8.668-25.367,14.285-33.711,16.824l-0.891,0.254c-7.965,2.258-17.676,3.68-29.078,4.254
	c-0.625-0.043-1.188,0.016-1.652,0.191c-0.773,0.32-0.836,0.801-0.188,1.332c1.781,1.727,7.973,2.247,18.602,1.653
	c2.422-0.27,5.012-0.602,7.746-1.016c11.934-2.488,24.172-7.457,36.695-14.859c3.684-2.215,7.719-4.188,12.063-5.965
	c0.707,2.098,3.352,5.5,7.938,10.219c5.387,5.23,10.871,10.66,16.445,16.254c3.238,3.011,5.254,4.605,6.094,4.827
	c0.746,0.207,1.246,0.032,1.523-0.507c0.414-0.813,0.285-2.043-0.379-3.746c-0.75-1.813-3.855-4.836-9.398-9.016
	c-8.793-7.777-15.578-14.504-20.254-20.254c-0.16-0.218-0.363-0.433-0.633-0.574c0.191-4.196-0.441-6.848-1.969-8
	C720.121,206.254,719.855,206.187,719.648,206.172 M577.813,112.011c0.531,0.075,1.199,0.125,1.969,0.129
	c3.922,0.36,7.82,0.575,11.746,0.7c1.656,0.16,2.523,0.691,2.664,1.586c0.145,1.902,0.027,4.207-0.441,6.921
	c-1.352,5.496-2.773,10.821-4.191,16c-0.336-0.418-0.742-0.934-1.207-1.523c-0.926-1.047-2.531-1.633-4.887-1.781
	c-4.203-0.199-8.063-0.543-11.555-1.078c0.199-0.954,0.41-2.009,0.57-3.11c0.496-1.719,1.012-3.594,1.586-5.59
	c0.074,0.024,0.266,0.09,0.637,0.191c4.418,0.739,8.234,1.375,11.426,1.841c1.656,0.164,2.371-0.301,2.031-1.332
	c-0.441-1.141-1.477-2.067-3.109-2.856c-1.516-0.656-3.789-1-6.793-1.016c-1.203,0.122-2.305,0.274-3.367,0.442
	C575.906,118.027,576.855,114.828,577.813,112.011 M339.917,110.488c-1.354,0.129-2.504,0.593-3.429,1.336
	c-1.476,1.215-1.254,2.25,0.636,3.172c3.22,1.555,5.282,3.621,6.157,6.16c3.059,8.715,5.425,16.473,7.05,23.238
	c-6.929,3.899-14.293,7.977-22.097,12.317c-1.601,0.851-1.519,1.718,0.254,2.539c1.434,0.515,2.953,0.75,4.507,0.699
	c1.778-0.293,3.193-0.816,4.254-1.586c4.192-3.18,8.946-6.238,14.161-9.144c0.145,0.656,0.285,1.343,0.378,2.093
	c1.586,7.586,1.81,14.485,0.7,20.699c-0.566,4.512-2.004,9.063-4.379,13.652c-2.058,4.505-5.942,10.204-11.683,17.141
	c-0.871,0.868-1.388,1.54-1.461,1.969c-0.266,0.633,0.319,0.789,1.777,0.446c1.117-0.383,3.628-2.286,7.43-5.653
	c2.723-2.347,5.769-6.082,9.141-11.172c2.511-3.953,4.257-8.063,5.269-12.445c1.196-4.973,1.532-10.801,0.953-17.461
	c-0.175-1.207-0.311-2.441-0.444-3.746c2.433,2.25,7.566,6.421,15.491,12.508c8.707,6.547,16.091,11.406,22.032,14.73
	c2.785,1.703,5.145,2.266,7.114,1.586c5.617-2.422,10.949-4.625,15.933-6.664c2.16-0.821,3.176-1.539,2.985-2.098
	c-0.153-0.675-1.598-1.128-4.317-1.457c-3.492-0.296-7.172-0.589-11.047-0.828c-4.613-0.144-8.406-0.742-11.367-1.777
	c-3.976-1.231-9.772-4-17.394-8.316c-8.555-4.696-15.286-8.805-20.193-12.317c-0.186-1.43-0.429-2.84-0.694-4.32
	c6.426-3.485,15.14-7.477,26.094-11.871c1.679-0.578,3.296-1.172,4.824-1.778c1.526-0.609,2.312-1.273,2.414-2.097
	c-0.027-1.02-0.845-1.871-2.477-2.473c-2.864-0.754-5.261-1.07-7.175-0.953c-1.629,0.074-3.106,0.621-4.508,1.586
	c-4.895,3.176-11.653,7.367-20.188,12.508c-0.773-2.883-1.543-5.762-2.351-8.571c-0.754-2.425-1.36-4.632-1.84-6.668
	c-1.047-3.266-1.621-7.054-1.653-11.3c0.097-1.063-0.317-1.786-1.332-2.223c-1.992-0.809-4.671-1.277-8.062-1.461
	C340.879,110.465,340.37,110.449,339.917,110.488 M538.578,105.663c2.836,0.13,5.262,0.286,7.234,0.384
	c2.84,0.125,4.637,0.609,5.461,1.457c0.512,0.625,0.438,1.949-0.254,4.066c-2.047,5.988-4,11.5-5.902,16.441
	c-0.262,0.695-0.586,1.243-1.016,1.652c-0.355-0.636-0.988-1.402-1.906-2.284c-0.918-0.798-2.457-1.192-4.633-1.207
	c-2.621,0.015-5.148,0.05-7.492,0.062c0.82-2.851,1.68-5.41,2.539-7.555c3.703,0.293,6.957,0.68,9.715,1.079
	c1.691,0.031,2.262-0.465,1.777-1.461c-0.445-1.137-1.508-2.055-3.238-2.793c-1.555-0.528-3.801-0.719-6.793-0.571
	c-0.078,0.055-0.16,0.075-0.254,0.129c1.59-4.492,2.797-7.586,3.68-9.336C537.813,105.742,538.188,105.711,538.578,105.663
	 M572.672,103.441c-0.203-0.039-0.414-0.019-0.637,0.063c-0.574,0.148-0.73,0.769-0.508,1.843c0.449,2.762,0.359,5.723-0.254,8.954
	c-1.047,4.648-2.355,9.312-3.938,13.964c-0.691,2.2-0.918,4.524-0.695,6.985c0.184,1.761,0.551,2.933,1.141,3.554
	c1.012,0.829,1.922,0.274,2.793-1.71c0.063-0.219,0.148-0.364,0.191-0.508c0.488,0.215,1.152,0.39,2.031,0.57
	c3.457,0.3,8.824,1.387,16,3.3c-4.617,17.087-8.957,31.36-13.016,42.731c-0.629,1.918-1.336,3.226-2.094,3.938
	c-0.543,0.297-1.477,0.035-2.73-0.699c-1.813-0.997-3.547-1.981-5.336-3.047c-1.355-0.93-2.152-1.055-2.285-0.321
	c3.008,4.891,5.289,9.012,6.793,12.383c0.48,1.758,1.293,2.977,2.414,3.617c0.633,0.485,1.32,0.489,2.094-0.062
	c1.246-0.809,2.867-2.152,4.828-4.063c1.488-1.73,2.512-3.82,3.047-6.222c3.543-15.778,8.883-36.211,16-61.395
	c1.184-4.379,2.559-7.418,4.125-9.144c1.324-1.086,1.637-2.239,0.953-3.364c-1.184-1.812-2.996-3.695-5.523-5.652
	c-1.203-0.902-2.469-1.262-3.746-1.078c-3.285,0.676-5.875,1-7.746,1.016c-2.133-0.083-5.188-0.379-9.141-0.891
	c-1.176-1.824-2.586-3.285-4.191-4.445C573.055,103.586,572.871,103.48,572.672,103.441 M531.086,97.031
	c-0.34,0.035-0.723,0.223-1.082,0.508c-0.395,0.34-0.402,1.015-0.063,1.965c0.363,2.718,0.359,5.347,0,7.875
	c-0.078,2.132-0.547,4.937-1.461,8.379c-3.137,11.953-6.098,21.136-8.824,27.621c-2.313,6.363-5.344,12.406-9.207,18.031
	c-1.289,1.785-2,3.531-2.094,5.207c-0.043,2.836,0.211,4.906,0.762,6.156c0.621,1.328,1.453,1.551,2.477,0.699
	c1.391-0.769,2.645-2.269,3.746-4.507c2.5-4.606,4.566-9.563,6.223-14.731c1.949-6.469,3.922-12.855,5.902-19.238
	c0.523-1.79,1.031-3.567,1.523-5.27c0.293,0.086,0.582,0.168,0.953,0.192c2.613,0.062,6.699,0.629,12.254,1.777
	c-0.008,0.293,0.18,0.863,0.508,1.652c0.934,2.664,2.398,3.239,4.383,1.711c1.523-1.019,2.539-2.265,3.047-3.742
	c1.293-3.653,2.688-7.465,4.188-11.367c1.305-3.41,2.973-6.055,5.082-8c1.305-1.031,1.641-2.254,0.949-3.618
	c-1.043-1.452-2.504-3.077-4.316-4.827c-1.023-0.77-2.141-1.024-3.363-0.825c-4.992,0.402-10.164,0.356-15.492-0.191
	c-0.059-0.078-0.16-0.238-0.316-0.441c-1.359-2.02-2.996-3.621-4.828-4.762C531.715,97.07,531.426,96.992,531.086,97.031"/>
<path fill-rule="evenodd" clip-rule="evenodd" fill="#122E66" d="M191.137,484.277l-41.293,4.648
	c-1.828,0.207-3.117,0.648-3.848,1.324c-0.734,0.68-1.03,1.68-0.882,2.988c0.145,1.332,0.671,2.262,1.562,2.781
	c0.891,0.523,2.235,0.68,4.012,0.477l41.297-4.648l1.41,12.602l-39.222,4.418c-5.72,0.641-10.177-0.242-13.364-2.656
	c-3.188-2.422-5.082-6.359-5.695-11.844c-0.605-5.418,0.382-9.648,2.972-12.723c2.587-3.063,6.723-4.91,12.419-5.555l39.222-4.41
	 M145.125,531.762l52.88-18.309l4.636,13.445l-19.305,13.616c-2.113,1.532-4.327,3.052-6.617,4.552
	c-2.301,1.512-4.75,3.063-7.351,4.664c2.519-1.277,5.082-2.461,7.675-3.547c2.594-1.082,5.641-2.223,9.125-3.43l19.602-6.785
	l4.012,11.637l-52.879,18.305l-4.469-12.957l20.364-14.754c2.125-1.547,4.359-3.07,6.688-4.57c2.316-1.492,4.793-2.98,7.406-4.461
	c-3.828,1.719-7.477,3.262-10.918,4.668c-3.434,1.395-6.664,2.609-9.664,3.652l-17.16,5.941L145.125,531.762z M165.368,582.624
	l50.289-24.573l5.546,11.398l-50.285,24.57L165.368,582.624z M185.907,618.266l41.402-38.73l7.465,11.07l-17.828,14.66
	c-0.887,0.711-2.703,2.137-5.453,4.27c-2.75,2.137-5.938,4.578-9.563,7.339c4.094-2.304,8.981-4.976,14.641-8.019
	c0.972-0.516,1.672-0.895,2.113-1.137l20.309-10.848l7.308,10.848l-51.441,23.828L185.907,618.266z M212.422,654.527l40.566-38.582
	l19.504,20.578l-7.848,7.457l-10.781-11.379l-8.066,7.668l9.515,10.043l-7.742,7.363l-9.516-10.043l-9.078,8.632l11.114,11.728
	l-7.845,7.461L212.422,654.527z M246.176,688.413l35.211-43.558l14.079,11.422c3.636,2.953,5.757,5.949,6.332,8.98
	c0.573,3.035-0.387,6.094-2.895,9.195l-0.348,0.426l-2.012,2.492c-1.832,2.266-3.691,3.719-5.59,4.34
	c-1.886,0.609-4.078,0.52-6.554-0.289c1.426,2.113,2.027,4.159,1.836,6.125c-0.196,1.973-1.254,4.133-3.153,6.48l-8.14,10.07
	c-0.946,1.168-1.629,2.16-2.035,2.983c-0.414,0.825-0.68,1.614-0.773,2.396l-9.941-8.066c0.133-0.661,0.433-1.406,0.926-2.219
	c0.488-0.824,1.296-1.942,2.425-3.336l6.782-8.395c1.921-2.375,2.789-4.212,2.609-5.508c-0.168-1.309-1.379-2.891-3.59-4.747
	l-15.441,19.103L246.176,688.413z M276.926,670.297c2.238,1.699,3.965,2.586,5.188,2.664c1.218,0.09,2.395-0.566,3.527-1.973
	l1.989-2.465c1.175-1.453,1.616-2.759,1.339-3.914c-0.285-1.148-1.434-2.547-3.449-4.18l-0.371-0.306L276.926,670.297z
	 M298.098,701.813l10.618,6.641l-2.407,3.859c-1,1.605-1.453,2.969-1.367,4.109c0.074,1.137,0.707,2.078,1.883,2.813
	c1.086,0.684,2.168,0.863,3.261,0.559c1.09-0.32,1.992-1.035,2.707-2.184c0.625-0.996,0.942-2.191,0.95-3.543
	c0.007-1.375-0.297-2.941-0.922-4.691c-0.262-0.785-0.672-1.938-1.239-3.434c-1.797-4.863-2.925-8.402-3.386-10.633
	c-0.453-2.027-0.465-4.074-0.047-6.152c0.426-2.07,1.25-4.098,2.5-6.098c2.476-3.978,5.633-6.305,9.461-7.004
	c3.824-0.699,7.938,0.332,12.328,3.082c4.383,2.742,7.043,5.813,8.008,9.223c0.965,3.406,0.179,7.129-2.344,11.172l-2.438,3.91
	l-10.148-6.355l2.039-3.273c0.95-1.523,1.383-2.813,1.289-3.871c-0.101-1.055-0.723-1.942-1.878-2.664
	c-0.942-0.586-1.911-0.754-2.888-0.469c-0.972,0.266-1.785,0.938-2.453,2c-1.105,1.777-0.515,6.065,1.782,12.887l0.125,0.438
	l0.394,1.168c1.992,6.059,2.918,10.094,2.793,12.105c-0.085,1.348-0.375,2.707-0.839,4.098c-0.477,1.379-1.141,2.754-1.996,4.125
	c-2.556,4.098-5.809,6.492-9.773,7.195c-3.965,0.699-8.239-0.379-12.809-3.238c-4.531-2.84-7.253-6.156-8.164-9.93
	c-0.93-3.785-0.003-7.883,2.743-12.285L298.098,701.813z M333.785,742.758l21.336-51.813l11.7,4.84l-21.336,51.813L333.785,742.758z
	 M371.946,756.484l9.343-44.234l-8.078-1.719l2.235-10.594l28.507,6.055l-2.242,10.598l-8.077-1.719l-9.345,44.234L371.946,756.484z
	 M421.817,745.855l6.054,0.504l-0.507-17.223c-0.047-1.152-0.075-2.383-0.095-3.695c-0.015-1.313-0.026-3.305-0.023-5.961
	c-0.266,1.484-0.559,3.027-0.862,4.633c-0.325,1.602-0.661,3.234-1,4.926L421.817,745.855z M404.667,764.703l14.969-54.984
	l16.926,1.43l5.5,56.707l-13.426-1.129l-0.426-10.152l-8.699-0.734l-2.094,9.938L404.667,764.703z M455.567,749.449l12.5,0.656
	l-0.239,4.539c-0.102,1.891,0.165,3.309,0.79,4.262c0.617,0.957,1.628,1.477,3.007,1.547c1.282,0.07,2.313-0.297,3.125-1.098
	c0.805-0.813,1.243-1.875,1.313-3.223c0.063-1.177-0.237-2.371-0.887-3.563c-0.66-1.203-1.676-2.43-3.074-3.657
	c-0.608-0.558-1.523-1.366-2.741-2.397c-3.927-3.383-6.63-5.93-8.11-7.656c-1.379-1.555-2.375-3.336-3.023-5.355
	c-0.621-2.02-0.886-4.195-0.761-6.548c0.245-4.683,1.875-8.253,4.89-10.726c3.005-2.469,7.098-3.563,12.27-3.289
	c5.164,0.27,8.977,1.66,11.469,4.176c2.488,2.516,3.609,6.148,3.355,10.91l-0.238,4.602L477.258,732l0.198-3.852
	c0.094-1.797-0.148-3.133-0.746-4.012c-0.593-0.871-1.574-1.344-2.933-1.418c-1.105-0.059-2.032,0.27-2.746,0.992
	c-0.728,0.707-1.114,1.691-1.185,2.938c-0.104,2.098,2.488,5.563,7.797,10.41l0.321,0.32l0.914,0.832
	c4.667,4.332,7.433,7.41,8.292,9.23c0.578,1.219,0.984,2.551,1.25,3.988c0.254,1.438,0.336,2.961,0.254,4.582
	c-0.254,4.819-1.938,8.496-5.066,11.039c-3.133,2.539-7.387,3.668-12.774,3.387c-5.336-0.281-9.324-1.856-11.945-4.719
	c-2.636-2.859-3.815-6.895-3.547-12.074L455.567,749.449z M532.438,741.902l6.012-0.938l-4.543-16.621
	c-0.316-1.109-0.629-2.297-0.953-3.57c-0.328-1.27-0.805-3.203-1.43-5.785c0.094,1.508,0.168,3.078,0.246,4.707
	c0.066,1.633,0.121,3.297,0.188,5.023L532.438,741.902z M520.203,764.277l1.633-56.977l16.789-2.617l18.66,53.816l-13.313,2.074
	l-2.801-9.766l-8.625,1.348l0.297,10.152L520.203,764.277z M575.266,752.441l-21.418-51.778l17.961-7.46l9.16,15.438
	c1.141,1.94,2.285,4,3.441,6.188c1.145,2.188,2.348,4.578,3.598,7.168c-1.055-3.125-1.949-5.898-2.707-8.309
	c-0.75-2.43-1.301-4.297-1.625-5.625l-4.34-17.984l17.871-7.422l21.418,51.773l-11.219,4.664l-7.836-18.945
	c-1.637-3.957-3.305-8.047-4.992-12.281c-1.688-4.227-3.387-8.582-5.117-13.043c1.168,4.77,2.125,8.773,2.895,12.004
	c0.773,3.23,1.27,5.309,1.473,6.234l6.738,28.871l-7.336,3.047l-15.109-24.031c-2.133-3.414-4.016-6.512-5.664-9.266
	c-1.633-2.742-3.184-5.379-4.621-7.914c1.777,3.871,3.523,7.812,5.266,11.836c1.734,4.02,3.57,8.359,5.5,13.023l7.918,19.141
	L575.266,752.441z M615.516,690.999c-3.199-4.757-4.453-9.116-3.75-13.081c0.711-3.969,3.352-7.5,7.926-10.587
	c4.621-3.128,8.879-4.272,12.77-3.441c3.887,0.833,7.453,3.649,10.684,8.441l12.859,19.103c3.215,4.777,4.492,9.147,3.813,13.113
	c-0.684,3.965-3.324,7.492-7.934,10.605c-4.555,3.078-8.813,4.199-12.766,3.355c-3.953-0.848-7.539-3.648-10.742-8.406
	L615.516,690.999z M624.977,682.137l15.172,22.526c1.016,1.513,2.004,2.435,2.98,2.774c0.969,0.332,2,0.121,3.133-0.641
	c1.121-0.754,1.695-1.637,1.75-2.66c0.047-1.031-0.438-2.293-1.453-3.806l-15.168-22.53c-1.016-1.508-2.02-2.438-2.996-2.777
	c-0.98-0.332-2.035-0.129-3.164,0.633c-1.094,0.742-1.66,1.629-1.711,2.66C623.473,679.348,623.961,680.621,624.977,682.137
	 M681.91,692.188l-37.434-41.652l9.406-8.484l37.434,41.652L681.91,692.188z M705.656,670.715l-40.246-38.934l19.672-20.41
	l7.781,7.527l-10.883,11.289l8.004,7.734l9.598-9.957l7.68,7.43l-9.602,9.961l9.004,8.711l11.211-11.629l7.781,7.527
	L705.656,670.715z M749.367,580.43l5.094-11.457l4.145,1.852c1.727,0.77,3.141,1.031,4.258,0.785
	c1.105-0.234,1.953-0.992,2.516-2.258c0.52-1.176,0.551-2.273,0.098-3.316c-0.469-1.039-1.301-1.832-2.531-2.383
	c-1.078-0.477-2.297-0.629-3.641-0.449c-1.355,0.187-2.863,0.703-4.508,1.57c-0.738,0.366-1.816,0.938-3.219,1.703
	c-4.559,2.461-7.898,4.074-10.039,4.84c-1.945,0.734-3.961,1.031-6.074,0.906c-2.105-0.137-4.227-0.672-6.379-1.629
	c-4.273-1.91-7.016-4.711-8.238-8.414s-0.777-7.922,1.332-12.66c2.102-4.734,4.766-7.797,8-9.227s7.02-1.172,11.375,0.766
	l4.195,1.875l-4.867,10.956l-3.52-1.569c-1.637-0.73-2.965-0.98-4.004-0.739c-1.027,0.247-1.82,0.989-2.371,2.239
	c-0.453,1.011-0.477,1.996-0.063,2.922c0.398,0.93,1.176,1.647,2.316,2.152c1.914,0.855,6.074-0.328,12.488-3.555l0.418-0.188
	l1.102-0.555c5.707-2.816,9.57-4.297,11.574-4.453c1.348-0.102,2.73-0.005,4.168,0.262c1.43,0.281,2.879,0.75,4.355,1.41
	c4.402,1.965,7.227,4.855,8.473,8.695c1.242,3.832,0.77,8.219-1.422,13.156c-2.172,4.891-5.074,8.055-8.68,9.484
	c-3.609,1.441-7.785,1.094-12.52-1.013L749.367,580.43z M786.441,541.719l-53.207-17.32l3.91-12.055l53.207,17.319L786.441,541.719z
	 M776.031,508.265l2.176-12.352l4.469,0.79c1.859,0.328,3.293,0.242,4.316-0.27c1.023-0.496,1.66-1.438,1.898-2.801
	c0.223-1.266-0.012-2.34-0.703-3.242c-0.707-0.895-1.707-1.461-3.039-1.695c-1.156-0.207-2.379-0.055-3.633,0.445
	c-1.273,0.512-2.609,1.375-3.992,2.613c-0.633,0.539-1.547,1.352-2.719,2.434c-3.828,3.492-6.68,5.871-8.566,7.129
	c-1.711,1.184-3.602,1.965-5.68,2.355c-2.078,0.375-4.262,0.371-6.578-0.039c-4.609-0.816-7.945-2.871-10.027-6.168
	c-2.082-3.293-2.664-7.492-1.766-12.605c0.898-5.102,2.738-8.719,5.535-10.891c2.793-2.172,6.527-2.84,11.219-2.013l4.527,0.802
	l-2.078,11.809l-3.797-0.668c-1.766-0.313-3.109-0.23-4.063,0.25c-0.938,0.488-1.523,1.402-1.758,2.746
	c-0.195,1.094,0.016,2.055,0.641,2.855c0.617,0.805,1.543,1.313,2.773,1.527c2.059,0.363,5.813-1.793,11.258-6.48l0.359-0.281
	l0.934-0.805c4.859-4.117,8.25-6.488,10.156-7.121c1.281-0.43,2.645-0.672,4.105-0.759c1.457-0.077,2.973,0.028,4.566,0.31
	c4.75,0.84,8.184,2.957,10.32,6.383c2.133,3.422,2.734,7.793,1.797,13.109c-0.926,5.273-2.977,9.047-6.129,11.309
	c-3.156,2.273-7.293,2.953-12.395,2.051L776.031,508.265z M736.316,634.953l-45.262-32.945l8.344-11.509l22.195,8.056
	c2.469,0.858,4.977,1.809,7.516,2.828c2.551,1.023,5.223,2.148,8.023,3.363c-2.48-1.336-4.918-2.758-7.293-4.27
	s-5.047-3.359-8.035-5.531l-16.773-12.211l7.219-9.957l45.262,32.945l-8.039,11.09l-23.734-8.281
	c-2.484-0.855-5.012-1.813-7.574-2.868c-2.547-1.05-5.18-2.229-7.891-3.526c3.602,2.16,6.953,4.266,10.074,6.293
	c3.109,2.02,5.953,3.977,8.523,5.848l14.688,10.688L736.316,634.953z"/>
<path fill-rule="evenodd" clip-rule="evenodd" fill="#122E66" d="M466.723,51.855c210.261,0,381.746,171.488,381.746,381.746
	c0,210.258-171.484,381.746-381.746,381.746c-210.263,0-381.746-171.488-381.746-381.746
	C84.977,223.343,256.46,51.855,466.723,51.855 M466.723,192.718c132.671,0,240.882,108.211,240.882,240.883
	c0,132.676-108.211,240.883-240.882,240.883c-132.672,0-240.883-108.207-240.883-240.883
	C225.84,300.929,334.051,192.718,466.723,192.718 M466.723,185.71c136.531,0,247.89,111.356,247.89,247.891
	s-111.359,247.895-247.89,247.895c-136.531,0-247.892-111.359-247.892-247.895S330.192,185.71,466.723,185.71 M466.723,76.195
	c196.853,0,357.414,160.554,357.414,357.406c0,196.854-160.561,357.41-357.414,357.41c-196.855,0-357.41-160.557-357.41-357.41
	C109.313,236.75,269.868,76.195,466.723,76.195 M466.723,68.078c201.324,0,365.521,164.203,365.521,365.523
	S668.047,799.125,466.723,799.125c-201.32,0-365.523-164.203-365.523-365.523S265.403,68.078,466.723,68.078 M466.723,33.601
	c220.31,0,400,179.687,400,400c0,220.312-179.689,400-400,400c-220.312,0-400-179.688-400-400
	C66.723,213.288,246.411,33.601,466.723,33.601"/>
<path fill-rule="evenodd" clip-rule="evenodd" fill="#122E66" d="M515.406,389.663v8.716h-14.344v-8.716 M509.625,412.297h-8.563
	v-10.828h8.563V412.297z M524.309,389.663H518.5v8.716h5.809V389.663z M524.309,401.469h-11.594v10.828h11.594V401.469z
	 M488.051,325.758h12.508v11.988h-12.508V325.758z M468.469,325.758h16.488v11.988h-16.488V325.758z M448.887,325.758h16.492v11.988
	h-16.492V325.758z M432.133,325.758h13.664v11.988h-13.664V325.758z M500.559,306.906v15.762h-68.425v-15.762h7.125v11.961h13.308
	l-0.004-11.961h7.133v11.961H473v-11.961h7.125v11.961h13.313v-11.961H500.559z M518.5,427.703h5.809v-12.316H518.5V427.703z
	 M501.063,427.703h14.344v-12.316h-14.344V427.703z M478.273,340.84h17.665v9.66h-17.665V340.84z M457.516,340.84h17.664v9.66
	h-17.664V340.84z M436.758,340.84h17.668v9.66h-17.668V340.84z M429.042,332.938h-6.172v11.546h-3.09v-0.003h-6.215v0.003h-3.093
	v-11.546h-6.211v11.546h-12.395v-11.546h-6.547v17.558h48.343v-9.66h-4.621V332.938z M524.309,380.195h-13.852v6.379h13.852V380.195
	z M527.398,380.195v50.602H405.434v-50.602H382.23v-50.351h12.73v11.551h6.212v-11.551h12.394v11.547h6.215v-11.547h3.09v0.004
	h6.172l0.005-26.035h13.305v11.961h7.125v-11.961h13.308v11.961h7.121v-11.961h13.309v11.961h7.125v-11.961l13.309,0.004v26.031
	h6.855v-0.004h3.09v11.547h6.215v-11.547h12.395v11.547h6.211v-11.547h12.73v50.347h-23.746V380.195z M540.723,362.238h7.332v-8.648
	h-7.332V362.238z M525.836,362.238h11.793v-8.648h-11.793V362.238z M512.813,362.238h9.934v-8.648h-9.934V362.238z M488.73,362.238
	h20.992v-8.648H488.73V362.238z M467.891,362.238h17.75v-8.648h-17.75V362.238z M447.055,362.238h17.746v-8.648h-17.746V362.238z
	 M422.867,362.238h21.094v-8.648h-21.094V362.238z M409.844,362.238h9.935v-8.648h-9.935V362.238z M394.96,362.238h11.794v-8.648
	H394.96V362.238z M385.32,362.238h6.547v-8.648h-6.547V362.238z M515.152,365.328h-17.504v11.777h17.504V365.328z M534.422,365.328
	h-16.18v11.777h16.18V365.328z M548.055,365.328h-10.539v11.777h10.539V365.328z M394.827,365.328h-9.507v11.777h9.507V365.328z
	 M414.098,365.328h-16.181v11.777h16.181V365.328z M434.695,365.328h-17.508v11.777h17.508V365.328z M422.141,380.195h-13.616v6.379
	h13.616V380.195z M414.098,389.663h-5.573v8.716h5.573V389.663z M417.187,398.378h14.272v-8.716h-14.272V398.378z M414.098,415.387
	h-5.573v12.316h5.573V415.387z M417.187,427.703h14.272v-12.316h-14.272V427.703z M419.883,401.469h-11.358v10.828h11.358V401.469z
	 M422.973,412.297h8.487v-10.828h-8.487V412.297z M441.371,421.84h-6.819v5.863h6.819V421.84z M441.371,412.887h-6.797v2.5h-0.022
	v3.363h6.819V412.887z M441.371,403.93h-6.819v5.867h6.819V403.93z M441.371,394.977h-6.819v3.402h0.022v2.461h6.797V394.977z
	 M497.973,421.84h-6.824v5.863h6.824V421.84z M497.973,412.887h-6.824v5.863h6.824V412.887z M497.973,403.93h-6.824v5.867h6.824
	V403.93z M497.973,394.977h-6.824v5.863h6.824V394.977z M437.785,376.21c3.672-4.695,8.481-8.457,14-10.883h-14V376.21z
	 M432.113,386.574c0.783-2.234,1.774-4.368,2.957-6.379h-9.84v6.379H432.113z M497.457,380.195c1.184,2.008,2.184,4.145,2.961,6.379
	h6.949v-6.379H497.457z M480.75,365.328c5.422,2.383,10.157,6.063,13.809,10.641v-10.641H480.75z M457.898,374.102
	c2.18-0.789,4.493-1.278,6.903-1.418v-7.356h-0.759c-3.021,0.203-5.938,0.809-8.688,1.774L457.898,374.102z M450.021,378.75
	c1.526-1.332,3.221-2.488,5.041-3.422l-2.574-7.074c-2.875,1.32-5.527,3.035-7.89,5.077L450.021,378.75z M445.379,384.156
	c0.726-1.148,1.543-2.23,2.44-3.234l-5.468-5.466c-1.896,1.97-3.551,4.181-4.918,6.571L445.379,384.156z M442.146,391.883
	c0.393-1.72,0.963-3.375,1.698-4.942l-7.853-2.101c-0.479,1.062-1.44,3.23-1.44,4.823v2.22H442.146z M488.063,397.27
	c0-13.434-11.153-21.801-21.8-21.801c-10.646,0-21.802,8.449-21.802,21.801v30.434h43.598L488.063,397.27z M488.656,386.867
	c0.75,1.586,1.336,3.27,1.734,5.016h7.582v-2.22c0-1.561-0.973-3.811-1.465-4.897L488.656,386.867z M484.566,380.753
	c0.938,1.035,1.793,2.145,2.547,3.327l7.945-2.125c-1.398-2.429-3.094-4.667-5.035-6.659L484.566,380.753z M477.203,375.199
	c1.859,0.918,3.582,2.075,5.141,3.407l5.422-5.422c-2.395-2.043-5.082-3.754-7.989-5.055L477.203,375.199z M467.891,372.695
	c2.25,0.149,4.418,0.594,6.464,1.309l2.547-7c-2.672-0.91-5.488-1.484-8.41-1.676h-0.601V372.695z M522.898,344.484v-11.546h6.211
	v11.546h12.395v-11.546h6.551v17.558h-49.027v-9.66h4.621v-7.898h6.855v11.546H522.898z M437.734,429.977l-22.031,21.969h-56.694
	v4.76h215.101v-4.76h-59.301l-21.965-21.969h-6.73l21.969,21.969h-85.648l21.964-21.969H437.734z M527.18,408.328h56.832v-4.763
	H527.18V408.328z M444.258,408.328h43.984v-4.763h-43.984V408.328z M349.039,408.328h56.613v-4.763h-56.613V408.328z
	 M550.492,368.581h36.125v-4.761h-36.125V368.581z M346.5,368.581h36.763v-4.761H346.5V368.581z M503.445,317.598h86.602v-4.762
	h-86.602V317.598z M343.07,317.598h86.179v-4.762H343.07V317.598z M552.027,271.753l3.941,8.168l8.984,1.223l-6.547,6.281
	l1.609,8.93l-7.988-4.289l-7.996,4.289l1.609-8.93l-6.547-6.281l8.984-1.223 M381.137,271.753l3.944,8.168l8.985,1.223l-6.546,6.281
	l1.609,8.93l-7.992-4.289l-7.992,4.289l1.609-8.93l-6.548-6.281l8.981-1.223L381.137,271.753z M381.137,261.898l6.862,14.21
	l15.638,2.133l-11.395,10.921l2.8,15.532l-13.905-7.461l-13.907,7.461l2.801-15.532l-11.398-10.921l15.64-2.133L381.137,261.898z
	 M466.035,468.688l3.945,8.168l8.985,1.223l-6.552,6.277l1.613,8.934L466.035,489l-7.992,4.289l1.609-8.934l-6.55-6.277l8.988-1.223
	L466.035,468.688z M466.035,458.828l6.863,14.211l15.641,2.137l-11.398,10.922l2.8,15.531l-13.906-7.461l-13.91,7.461l2.806-15.531
	l-11.399-10.922l15.642-2.137L466.035,458.828z M552.027,261.898l6.863,14.21l15.637,2.133l-11.398,10.921l2.805,15.532
	l-13.906-7.461l-13.91,7.461l2.801-15.532l-11.395-10.921l15.637-2.133L552.027,261.898z M383.156,588.703
	c0.231-0.023,0.981-0.148,2.239-0.373c3.32-0.75,6.417-1.244,9.315-1.494c0.466-0.039,0.688,0.523,0.669,1.691
	c-0.113,1.406-0.43,2.48-0.949,3.23l-10.142,2.09 M395.574,584.66c-0.347,0.027-1.605,0.316-3.777,0.855
	c-3.535,0.883-6.563,1.605-9.078,2.168c-0.871-0.625-1.707-0.844-2.509-0.656c-0.565,0.168-0.53,0.57,0.102,1.219
	c0.407,0.543,0.848,1.73,1.355,3.551c0.345,1.254,0.668,2.34,0.978,3.246c0.436,1.004,0.945,1.543,1.542,1.613
	c0.45-0.16,0.579-0.75,0.368-1.777c0.347-0.031,1.729-0.211,4.147-0.535c5.185-0.797,8.582-1.254,10.204-1.395
	c0.457-0.164,0.496-0.395,0.117-0.715c-0.386-0.43-0.946-0.736-1.652-0.91c0.778-1.813,1.775-3.063,3-3.746
	c0.547-0.398,0.267-0.957-0.848-1.684C398.063,585.086,396.742,584.68,395.574,584.66 M383.344,578.715
	c-0.638-0.645-1.77-1.012-3.414-1.109c-0.582,0.051-0.532,0.629,0.144,1.742c0.938,1.434,1.707,2.184,2.293,2.25
	C383.598,581.02,383.93,580.063,383.344,578.715 M389.105,570.352c2.997-0.371,4.997-0.781,6.012-1.223
	c0.981-0.773,0.313-1.129-2.015-1.049c-0.344,0.029-1.04,0.15-2.068,0.357c-0.792,0.297-1.421,0.473-1.882,0.516
	c-0.015-0.238,0.071-0.594,0.261-1.078c0.079-0.359,0.118-0.648,0.099-0.883c-0.032-0.344-0.356-0.73-0.97-1.141
	c4.125-0.82,6.817-1.402,8.071-1.742c0.671-0.289,0.813-0.711,0.414-1.262c-0.496-0.305-1.257-0.41-2.3-0.32
	c-0.114,0.008-0.521,0.105-1.204,0.273c-4.324,1.305-9.242,2.309-14.778,3.02c-1.035,0.199-1.128,0.5-0.272,0.895
	c0.718,0.289,1.776,0.371,3.172,0.254c0.925-0.082,1.893-0.227,2.929-0.426c0.632,0.531,1.125,1.531,1.488,3.022
	c-1.61,0.368-3.324,0.688-5.164,0.966c-0.668,0.406-0.289,0.723,1.129,0.949c1.05,0.027,2.496-0.156,4.328-0.543l0.254,2.949
	c-3.91,0.684-6.785,1.109-8.636,1.266c-0.907,0.309-0.875,0.656,0.086,1.038c0.711,0.181,1.933,0.185,3.675,0.036
	c1.383-0.117,2.593-0.286,3.629-0.48c0.567-0.172,1.032-0.27,1.382-0.297l0.368,6.441c-0.347,0.035-0.864,0.129-1.551,0.309
	c-8.75,1.219-14,1.84-15.75,1.866c-0.808,0.071-0.96,0.325-0.46,0.739c0.878,0.742,1.85,1.25,2.925,1.504
	c0.121-0.012,0.575-0.104,1.379-0.293c3.149-1.325,10.664-2.723,22.546-4.211c3.008-0.254,6.672-0.328,10.997-0.239
	c0.349-0.03,0.524-0.046,0.524-0.046c1.261-0.227,1.319-0.863,0.183-1.941c-1.121-0.832-2.437-1.184-3.937-1.055
	c-0.578,0.047-2.129,0.35-4.646,0.922c-2.053,0.527-3.433,0.816-4.125,0.875c1.621-1.539,2.746-2.68,3.382-3.434
	c0.418-0.508,0.271-0.902-0.457-1.191c-1.09-0.49-2.147-0.63-3.179-0.422c-0.461,0.042-0.554,0.34-0.278,0.898
	c0.289,0.676,0.392,1.191,0.313,1.543c-0.481,1.207-1.028,2.246-1.66,3.115l-3.793,0.674l-0.183-6.281
	c0.918-0.188,2.297-0.43,4.136-0.695c2.64-0.469,4.364-0.785,5.165-0.973c0.91-0.309,1.104-0.68,0.6-1.1
	c-0.604-0.295-1.6-0.393-2.991-0.271c-0.231,0.021-0.981,0.145-2.246,0.375c-1.724,0.257-3.336,0.512-4.828,0.762L389.105,570.352z
	 M379.582,559.27c-0.589-0.059-0.733,0.242-0.444,0.918c0.418,0.781,1.133,1.59,2.136,2.438c0.637,0.648,1.231,0.828,1.789,0.547
	c0.562-0.277,0.801-0.828,0.735-1.637C383.32,560.063,381.917,559.309,379.582,559.27 M443.039,577.617
	c1.813-0.215,3.738-0.559,5.789-1.031c1.81-0.219,2.695-0.633,2.664-1.238c-0.164-0.727-1.086-1.035-2.781-0.945
	c-0.366,0.02-0.913,0.105-1.633,0.266c-0.726,0.035-2.051,0.285-3.976,0.75c-0.051-0.965,0.074-1.949,0.39-2.938
	c0.106-0.371,0.09-0.676-0.047-0.906c-2.121-1.109-3.729-1.629-4.828-1.57c-0.487,0.023-0.461,0.504,0.078,1.449
	c0.813,1.543,1.262,3.098,1.344,4.684c-1.09,0.172-2.539,0.434-4.344,0.77c-2.049,0.352-3.136,0.531-3.258,0.534
	c-1.796,0.462-1.477,0.868,0.977,1.231c1.953,0.137,4.195-0.049,6.732-0.543l0.502,6.184c-4.953,0.746-9.668,1.363-14.14,1.836
	c-0.728,0.164-1.267,0.246-1.629,0.27c-1.695,0.205-2.353,0.484-1.966,0.83c0.617,0.207,1.906,0.447,3.867,0.707
	c0.125-0.002,0.551-0.088,1.267-0.244c10.112-2.105,20.534-2.957,31.265-2.551c2.063,0.012,2.766-0.574,2.098-1.75
	c-0.922-1.176-2.535-1.813-4.854-1.945c-0.356,0.023-1.021,0.115-1.985,0.293c-3.136,0.648-6.871,1.336-11.207,2.043
	L443.039,577.617z M497.273,582.254c2.605,3.658,4.797,5.906,6.582,6.73c1.863-0.754,2.066-2.207,0.598-4.355
	c-1.059-0.781-2.832-1.668-5.344-2.648C497.434,581.527,496.824,581.613,497.273,582.254 M498.781,574.48
	c0.109,0.121,0.281,0.379,0.504,0.758c2.051,2.539,3.391,3.76,4,3.674c1.746-0.764,2.051-1.963,0.922-3.604
	C500.277,573.648,498.469,573.367,498.781,574.48 M492.094,562.629c-0.242-0.016-1.098,0.129-2.578,0.418
	c-5.41,1.172-10.43,1.699-15.05,1.578c-0.849,0.078-0.931,0.379-0.224,0.898c0.926,0.906,1.931,1.504,3.004,1.801
	c0.367,0.02,2.521-0.473,6.465-1.484c0.352,5.012-3.168,10.668-10.563,16.973c-1.007,0.676-1.023,0.918-0.039,0.727
	c0.868-0.199,1.868-0.695,2.996-1.488c4.293-2.816,7.274-6.316,8.946-10.48c0.125,0.008,0.367,0.078,0.723,0.223
	c1.543,0.684,2.375,1.16,2.48,1.402c0.203,0.863-0.199,2.605-1.188,5.234c-0.98,2.504-1.785,3.918-2.41,4.25
	c-0.125-0.008-0.66-0.152-1.617-0.449c-1.785-0.703-2.454-0.801-1.996-0.285c1.031,1.27,1.688,2.578,1.984,3.938
	c-0.016,0.238,0.039,0.365,0.164,0.371c0.953,0.418,2.063,0.047,3.344-1.102c1.035-1.156,1.91-2.879,2.641-5.154
	c0.879-2.873,1.723-4.959,2.523-6.256c0.133-0.359,0.211-0.594,0.215-0.719c-0.43-0.996-1.184-1.77-2.254-2.309
	c-0.242-0.012-0.539-0.09-0.898-0.23c-0.969-0.051-1.875-0.156-2.715-0.324c0.133-0.359,0.398-0.773,0.789-1.238
	c0.395-0.582,0.543-1.004,0.43-1.254c0.137-0.23-0.684-0.883-2.449-1.949c3.313-0.559,6.125-0.84,8.438-0.84
	c1.211,0.062,1.719-0.27,1.52-1.016C494.32,563.113,493.43,562.699,492.094,562.629 M485.387,554.793
	c1.934,2.652,3.613,4.145,5.063,4.465c1.848-0.516,2.094-1.656,0.723-3.434C487.02,553.789,485.094,553.438,485.387,554.793
	 M547.875,575.945c1.078,0.245,2.902,0.34,5.477,0.27c1.707,0.07,2.805,0.145,3.281,0.197c1.453,0.174,2.219-0.107,2.301-0.832
	c-0.008-0.982-0.672-1.607-1.988-1.885c-0.84-0.098-2.375-0.033-4.613,0.199c-1.859,0.273-3.285,0.41-4.266,0.426
	c0.477-4.105,1.012-7.102,1.598-8.992c0.203-0.711,0.402-1.363,0.586-1.953c0.18-0.465,0.285-0.82,0.313-1.06
	c-0.461-1.284-2.195-2.214-5.18-2.808c-0.75,0.164-0.828,0.832-0.23,1.992c0.379,0.906,0.598,1.66,0.652,2.281
	c0.293,3.828-0.605,12.594-2.68,26.297l-6.945-0.254c0.012-1.098,0.055-2.566,0.137-4.391c0.188-4.754,0.406-7.664,0.648-8.73
	c0.055-0.484,0.188-1.082,0.395-1.793c0.18-0.465,0.219-0.83,0.125-1.082c-0.855-1.078-2.348-1.926-4.477-2.539
	c-0.848-0.102-0.918,0.504-0.207,1.809c0.504,0.918,0.789,1.625,0.852,2.117c0.32,2.488,0.254,7.313-0.207,14.476
	c-2.836,0.157-5.637,0.079-8.41-0.245c-1.469-0.043-2.035,0.129-1.711,0.535c0.672,0.449,1.902,0.898,3.691,1.348
	c5.77-0.188,11.816-0.098,18.133,0.266c2.91,0.215,5.809,0.551,8.691,1.008c2.77,0.32,5.414,0.754,7.926,1.289
	c2.039,0.352,2.887-0.098,2.539-1.359c-0.809-1.438-2.168-2.332-4.086-2.672c-0.609-0.07-2.387-0.035-5.34,0.109
	c-3.914,0.039-6.918,0.059-9,0.059L547.875,575.945z M501.02,552.516c-0.613,0.078-0.695,0.439-0.234,1.074
	c0.574,0.648,0.5,2.039-0.219,4.191c-1.988,7.688-4.52,13.082-7.602,16.211c-1.039,1.164-0.867,1.352,0.512,0.573
	c3.664-2.61,6.578-7.019,8.727-13.229c0.793,1.129,2.125,3.516,4.008,7.141c0.891,1.508,1.508,2.578,1.844,3.203
	c0.383,1.84,2.418,2.555,6.086,2.141c0.363,0.02,0.664,0.035,0.914,0.051c1.215-0.056,2.012-0.199,2.391-0.426
	c0.379-0.219,0.211-0.477-0.508-0.755c-5.785-3.464-9.559-6.71-11.352-9.722c-1.258-1.52-2.18-2.547-2.758-3.066
	c0.445-1.672,1.012-3.109,1.68-4.289c0.148-0.355,0.215-0.658,0.223-0.898C504.293,553.961,503.055,553.227,501.02,552.516
	 M448.137,553.07c-0.125,0.008-0.297,0.078-0.532,0.215c-3.222,1.262-8.832,2.285-16.82,3.07c-2.172,0.238-2.344,0.617-0.483,1.125
	c1.961,0.262,3.905,0.215,5.832-0.129c0.659,0.941,0.479,2.352-0.509,4.227c-1.901,3.262-3.979,5.316-6.25,6.168
	c-0.358,0.145-0.594,0.273-0.711,0.402c-0.332,0.625-0.405,1.484-0.229,2.566c0.16,0.726,0.479,1.078,0.972,1.047
	c0,0,0.539-0.152,1.617-0.453c1.559-0.445,7.133-2.016,16.723-4.707c0.134,0.113,0.254,0.227,0.388,0.348
	c1.551,1.616,2.612,2.293,3.215,2.02c1.261-1.278,1.121-2.918-0.446-4.906c-1.031-1.043-2.781-1.926-5.246-2.645
	c-2.347-0.609-3.074-0.449-2.164,0.48c0.899,0.926,1.996,2.145,3.289,3.66c-6.144,1.168-10.969,2.035-14.465,2.578
	c1.739-1.547,4.055-3.918,6.93-7.113c0.228-0.254,0.521-0.512,0.871-0.773c1.767-1.066,1.469-2.148-0.897-3.238
	c5.19-0.762,8.866-1.383,11.039-1.852c1.194-0.316,1.534-0.816,1.008-1.52C450.758,553.184,449.715,552.988,448.137,553.07
	 M392.926,555.859c-0.692,0.059-0.953,0.434-0.774,1.113c0.058,0.695-0.015,1.223-0.215,1.59c-0.102,0.128-0.313,0.438-0.625,0.93
	c-1.063,1.145-1.808,1.963-2.235,2.463c-0.526,0.631-0.733,0.939-0.612,0.928c0.12,0.109,0.62-0.105,1.508-0.648
	c0.328-0.262,1.276-0.813,2.839-1.641c1.004-0.555,1.665-0.965,1.993-1.223c0.218-0.141,0.668-0.348,1.347-0.641
	c0.899-0.426,1.215-0.805,0.95-1.129C395.719,556.438,394.327,555.855,392.926,555.859 M629.434,425.375
	c-1.867-2.723-3.695-5.457-5.496-8.223c0.66-5.712,9.527-10.273,19.484-10.273c10.352,0,19.527,4.93,19.527,10.961
	c0,2.855-2.063,5.457-5.336,7.418c-1.188,0.496-2.375,0.789-3.559,0.891h-22.859C630.473,426.148,630.074,425.738,629.434,425.375
	 M654.055,455.234c-5.008-5.488-10.32-10.794-14.746-16.41c-2.137-2.711-4.199-5.457-6.199-8.234h20.945V455.234z M654.781,504.973
	c-10.082,11.504-22.988,22.621-24.281,38.75c-0.035,2.777,0.75,21.539-0.922,23.242c-0.766,0.773-2.227,1.59-4.566,0.336
	c0,0-4.23-3.047-8.836-5.383c0.113-3.863,0.395-12.75,0.848-22.367c0.363-7.617,3.324-16.797,8.023-23.656
	c4.242-6.18,5.457-14.648,4.691-21.84C629.738,494.055,642.184,502.824,654.781,504.973 M627.02,484.051
	c-0.027-2.324-0.172-14.262-0.461-20.457c-0.285-6.156-4.09-11.938-6.688-17.949c-1.895-4.387-2.727-8.922-3.184-13.801
	c-0.535-5.813-0.363-12.066-0.363-18.859c0,0,8.996,14.98,22.016,31.418c6.68,8.438,16.969,17.395,22.418,26.184
	c3.215,5.188,6.902,14.758,2.434,22.93c-1.297,2.359-2.859,4.633-4.602,6.871l0.109-0.227
	C658.699,500.16,639.582,500.336,627.02,484.051 M579.043,608.504c3.109-6.199,2.961-15.006,2.172-23.816
	c-0.813-9.09-2.305-18.203-1.086-24.465c0.844-4.375,2.93-6.004,5.309-9.402c5.758-8.242,9.129-19.152,2.555-27.543
	c-4.285-5.469-10.262-10.203-10.297-15.758c-0.047-6.301,1.633-19.281,15.887-22.25l30.305-0.148
	c1.234,5.469,2.5,19.121-0.363,24.02c-4.578,7.824-10.402,17.55-11.043,29.18l-0.559,21.75c-0.293-0.102-0.594-0.195-0.883-0.281
	c0,0-8.555-3.254-12.848,5.609c-2.859,5.922-2.969,13.594-5.07,20.051c-1.828,5.652-4.84,11.793-8.457,16.531
	C583.484,603.527,580.285,607.977,579.043,608.504 M304.016,425.375c1.863-2.723,3.694-5.457,5.492-8.223
	c-0.66-5.712-9.524-10.273-19.481-10.273c-10.351,0-19.532,4.93-19.532,10.961c0,2.855,2.067,5.457,5.336,7.418
	c1.192,0.496,2.375,0.789,3.56,0.891h22.863C302.977,426.148,303.371,425.738,304.016,425.375 M279.391,455.234
	c5.011-5.488,10.324-10.794,14.75-16.41c2.132-2.711,4.194-5.457,6.199-8.234h-20.949V455.234z M278.667,504.973
	c10.082,11.504,22.985,22.621,24.282,38.75c0.031,2.777-0.75,21.539,0.918,23.242c0.766,0.773,2.231,1.59,4.57,0.336
	c0,0,4.226-3.047,8.836-5.383c-0.117-3.863-0.399-12.75-0.851-22.367c-0.36-7.617-3.32-16.797-8.024-23.656
	c-4.238-6.18-5.453-14.648-4.688-21.84C303.71,494.055,291.266,502.824,278.667,504.973 M306.43,484.051
	c0.026-2.324,0.172-14.262,0.457-20.457c0.289-6.156,4.093-11.938,6.69-17.949c1.892-4.387,2.724-8.922,3.181-13.801
	c0.534-5.813,0.366-12.066,0.366-18.859c0,0-8.995,14.98-22.015,31.418c-6.679,8.438-16.968,17.395-22.422,26.184
	c-3.21,5.188-6.903,14.758-2.433,22.93c1.297,2.359,2.863,4.633,4.605,6.871l-0.114-0.227
	C274.746,500.16,293.863,500.336,306.43,484.051 M354.402,608.504c-3.105-6.199-2.957-15.006-2.168-23.816
	c0.813-9.09,2.3-18.203,1.086-24.465c-0.847-4.375-2.929-6.004-5.308-9.402c-5.758-8.242-9.133-19.152-2.556-27.543
	c4.282-5.469,10.259-10.203,10.298-15.758c0.047-6.301-1.637-19.281-15.887-22.25l-30.305-0.148
	c-1.238,5.469-2.503,19.121,0.364,24.02c4.578,7.824,10.398,17.55,11.043,29.18l0.554,21.75c0.297-0.102,0.594-0.195,0.887-0.281
	c0,0,8.555-3.254,12.844,5.609c2.863,5.922,2.973,13.594,5.07,20.051c1.832,5.652,4.843,11.793,8.46,16.531
	C349.965,603.527,353.164,607.977,354.402,608.504 M569.344,609.105c2.254,0.738,4.66,0.855,5.672-2.75
	c4.656-12.984-0.875-29.246-0.387-42.246c0.133-3.473,0.699-6.715,2.004-9.59c-75.352-17.039-144.223-17.027-219.816,0
	c1.301,2.875,1.871,6.117,2,9.59c0.493,13-5.039,29.262-0.382,42.246c1.011,3.605,3.418,3.488,5.671,2.75
	C429.46,591.238,504.012,591.246,569.344,609.105 M579.25,549.602c5.281-5.793,6.875-10.836,6.906-15.492
	c0.039-5.529-2.809-8.504-5.531-11.742c-2.898-3.441-5.734-7.09-7.387-11.332c-1.262-3.22-0.734-8.47,0.902-13.742
	c3.254-10.492,13.578-17.566,23.363-17.566h24.34l0.129-12.668c0.18-7.618-3.898-14.203-6.82-21.215
	c-2.125-5.113-3.363-10.57-3.266-16.254l0.504-30.34h0.207c2.773,4.441,5.523,8.844,8.305,13.191
	c3.465-5.687,12.262-9.742,22.52-9.742c13.281,0,24.105,6.805,24.105,15.141c0,4.582-3.285,8.691-8.438,11.473v31.641l0.004,0.047
	c2.129,2.59,4.109,5.254,5.824,8.031c3.676,5.961,5.633,12.93,4.32,20.063c-3.324,18.039-33.758,35.793-34.109,54.512
	c-0.07,3.758,0.148,12.449-0.23,19.057c-0.172,3-0.137,5.572-0.891,7.053c-1.441,2.82-4.238,3.387-7.102,2.789
	c-6.02-1.254-14.047-9.754-19.59-8.299c-4.848,1.287-6.32,6.037-7.129,10.732c-1.215,7.09-3.168,14.109-6.414,20.758
	c-3.09,6.34-6.645,11.141-9.578,14.473c-2.09,2.387-3.949,3.641-6.168,4.33c-2.207,0.697-4.777,0.832-8.059-0.107
	c-65.301-18.648-141.21-18.643-206.488,0c-3.281,0.939-5.851,0.805-8.063,0.107c-2.215-0.689-4.073-1.943-6.168-4.33
	c-2.933-3.332-6.483-8.133-9.573-14.473c-3.246-6.648-5.203-13.668-6.418-20.758c-0.806-4.695-2.278-9.445-7.129-10.732
	c-5.544-1.455-13.57,7.045-19.591,8.299c-2.858,0.598-5.655,0.031-7.097-2.789c-0.757-1.48-0.722-4.053-0.89-7.053
	c-0.384-6.607-0.16-15.299-0.235-19.057c-0.347-18.719-30.785-36.473-34.11-54.512c-1.311-7.133,0.649-14.102,4.325-20.063
	c1.711-2.777,3.696-5.441,5.824-8.031l0.004-0.047v-31.641c-5.153-2.781-8.437-6.891-8.437-11.473
	c0-8.336,10.823-15.141,24.105-15.141c10.254,0,19.05,4.055,22.52,9.742c2.773-4.347,5.527-8.75,8.301-13.191h0.207l0.504,30.34
	c0.093,5.684-1.142,11.141-3.262,16.254c-2.923,7.012-7.005,13.597-6.82,21.215l0.125,12.668h24.339
	c9.786,0,20.114,7.074,23.368,17.566c1.632,5.272,2.156,10.522,0.901,13.742c-1.655,4.242-4.487,7.891-7.386,11.332
	c-2.726,3.238-5.579,6.213-5.536,11.742c0.032,4.656,1.7,9.82,6.982,15.613c80.652-17.469,143.452-17.543,224.976-0.121H579.25z
	 M379.449,248.012c28.447,17.664,52.335,25.14,87.235,25.14c34.902,0,58.726-7.476,87.171-25.14l52.508,44.633
	c-1.199-0.2-14.578,6.793-20.891,26.222c-2.535,7.821-2.73,17.524-2.602,27.301c0.117,9.188-0.211,18.449-0.129,26.285
	c-0.492,32.098-0.68,89.127-35.172,104.383c-6.375,2.563-39.59,10.117-55.426,17.902c-19.118,9.398-21.946,14.887-25.46,17.145
	c-3.512-2.258-6.407-7.746-25.521-17.145c-15.84-7.785-49.05-15.34-55.429-17.902c-34.492-15.256-34.675-72.285-35.172-104.383
	c0.083-7.836-0.246-17.097-0.125-26.285c0.125-9.777-0.067-19.48-2.606-27.301c-6.308-19.429-19.69-26.422-20.886-26.222
	L379.449,248.012z M378.5,239.628l-63.937,55.621c17.75,2.051,29.605,21.379,29.653,38.094l0.125,38.601
	c0.086,34.489,1.32,95.575,38.922,110.731c6.761,2.723,41.601,10.904,58.41,19.172c19.952,10.543,22.12,19.074,25.012,20.699
	c2.894-1.625,5-10.156,24.953-20.699c16.809-8.268,51.645-16.449,58.41-19.172c37.602-15.156,38.836-76.242,38.918-110.731
	l0.129-38.601c0.043-16.715,11.898-36.043,29.648-38.094l-63.934-55.621c-30.367,18.867-50.848,27.559-88.125,27.559
	C429.406,267.188,408.867,258.496,378.5,239.628"/>
</svg>
